<?xml version="1.0" standalone="no"?>
<!DOCTYPE svg PUBLIC "-//W3C//DTD SVG 1.1//EN" "http://www.w3.org/Graphics/SVG/1.1/DTD/svg11.dtd" >
<svg>
<metadata>
Created by FontForge 20110222 at Thu Aug  7 23:01:19 2014
 By Orthosie Webhosting
Copyright (c) 2009 by Satori Type. All rights reserved.
</metadata>
<defs>
<font id="PreiskurantSTItalic" horiz-adv-x="1113" >
  <font-face 
    font-family="PreiskurantSTItalic"
    font-weight="400"
    font-style="italic"
    font-stretch="normal"
    units-per-em="2048"
    panose-1="2 11 6 0 2 2 2 2 2 4"
    ascent="1556"
    descent="-492"
    bbox="-19 -307 1681.56 1418"
    underline-thickness="123"
    underline-position="-99"
    unicode-range="U+0020-2212"
  />
<missing-glyph 
 />
    <glyph glyph-name=".notdef" 
 />
    <glyph glyph-name=".null" horiz-adv-x="0" 
 />
    <glyph glyph-name="nonmarkingreturn" horiz-adv-x="682" 
 />
    <glyph glyph-name="space" unicode=" " horiz-adv-x="799" 
 />
    <glyph glyph-name="dollar" unicode="$" 
d="M766 1299l-14 -81q72 -9 120 -28t76 -48q78 -81 65 -219h-174q2 34 -6.5 64t-28.5 50q-8 8 -26.5 14.5t-52.5 11.5l-67 -378q113 -35 202 -118q42 -45 58.5 -99t5.5 -116q-13 -75 -50.5 -134t-96.5 -104q-47 -28 -104.5 -48.5t-129.5 -31.5l-12 -73h-170l12 68
q-84 7 -139 28.5t-84 56.5h1q-73 88 -52 250h175l-1 -1q-15 -89 22 -142q12 -16 37 -26t67 -17l72 409q-20 6 -38.5 13t-38.5 13h1q-107 55 -151 127t-26 174q12 69 48 125t94 99q42 28 97 48.5t125 30.5l14 82h170zM674 222q70 52 85 132q12 68 -25 104q-12 12 -37 24.5
t-70 25.5l-56 -316q43 6 66.5 13.5t36.5 16.5zM466 1034q-62 -46 -74 -116q-5 -29 1.5 -56.5t24.5 -53.5q8 -12 28 -25t55 -28l54 310q-33 -6 -54.5 -14t-34.5 -17z" />
    <glyph glyph-name="uni0025" unicode="%" horiz-adv-x="1221" 
d="M716 91q37 0 62.5 28t34.5 78q9 52 -6 79.5t-53 27.5t-64 -27.5t-35 -79.5t7 -79t54 -27zM930 197q-18 -98 -81 -156.5t-152 -58.5q-90 0 -133 58t-25 157q17 98 81 156.5t153 58.5q88 0 131 -58.5t26 -156.5zM463 984q37 0 61.5 27t33.5 79t-6 79.5t-52 27.5
q-39 0 -64.5 -28t-34.5 -79q-9 -50 7.5 -78t54.5 -28zM675 1090q-17 -99 -80 -157t-152 -58q-90 0 -133 58t-26 157q18 98 81.5 156.5t153.5 58.5q88 0 131 -58t25 -157zM123 444l998 605l-20 -180l-998 -605z" />
    <glyph glyph-name="plus" unicode="+" 
d="M641 1042v-347h348v-170h-348v-348h-170v348h-347v170h347v347h170z" />
    <glyph glyph-name="comma" unicode="," 
d="M441 214h324l-14 -84l-548 -437h-196z" />
    <glyph glyph-name="hyphen" unicode="-" 
d="M898 415h-713l29 170h713z" />
    <glyph glyph-name="period" unicode="." 
d="M414 301h337l-53 -301h-337z" />
    <glyph glyph-name="slash" unicode="/" horiz-adv-x="1261" 
d="M333 2h-170l764 1273h170z" />
    <glyph glyph-name="zero" unicode="0" 
d="M467 139q42 0 72.5 2.5t53 8t38.5 14t28 20.5q77 78 144 457q32 182 38 293.5t-12 163.5q-6 16 -17.5 26.5t-32.5 17.5t-53.5 10t-79.5 3q-46 0 -79 -3t-57 -10t-40 -17.5t-26 -26.5q-38 -54 -71 -165.5t-65 -291.5q-20 -115 -30 -200.5t-8.5 -145t14 -94t39.5 -46.5
q36 -16 144 -16zM988 641q-38 -215 -91.5 -354t-125.5 -215q-44 -46 -124.5 -68t-207.5 -22t-198.5 22.5t-102.5 71.5q-44 72 -48 214.5t33 350.5t91.5 352.5t123.5 216.5q47 49 127 72t207 23q220 0 286 -74q55 -63 62.5 -212t-32.5 -378z" />
    <glyph glyph-name="one" unicode="1" 
d="M634 1h-170l184 1042l-387 -258l37 220l384 270h177z" />
    <glyph glyph-name="two" unicode="2" 
d="M214 931q28 98 50.5 149t49 89t59.5 64t77 42t101 23t132 7q90 0 150.5 -13t98.5 -46t56.5 -88t22.5 -139q2 -44 -6 -92q-8 -44 -29 -91.5t-54.5 -92.5t-82 -84.5t-111.5 -68.5l-164 -88q-71 -38 -118.5 -72t-79.5 -69.5t-51.5 -73.5t-32.5 -84l-6 -33h577l-30 -170h-759
q1 15 3.5 30.5t7.5 45.5q18 101 50 184.5t76.5 144.5t101.5 108.5t126 87.5l227 118q50 25 81 49t50 49t27.5 52t14.5 58q9 50 5 94t-15 77q-11 31 -50.5 44t-112.5 13q-47 0 -80 -3t-56.5 -10t-51 -35t-39.5 -61.5t-30 -114.5h-185z" />
    <glyph glyph-name="three" unicode="3" 
d="M270 284q-1 -47 6 -75.5t28 -44t59.5 -20.5t101.5 -5q42 0 73 2.5t54 8t39 14t27 20.5q59 41 99 191q21 88 14 137.5t-35 73t-72 31.5t-123 6q-115 -8 -181 -29l26 144l419 367h-536l29 170h720l-38 -217l-385 -326q72 16 120 17q115 6 187 -57q48 -52 61 -125t-26 -208
q-65 -210 -158 -287q-53 -46 -133.5 -68t-207.5 -22q-110 0 -177.5 16.5t-104.5 52.5t-50.5 93.5t-16.5 139.5h181z" />
    <glyph glyph-name="four" unicode="4" 
d="M569 276h-493l36 203l523 796h184l-520 -829h300l48 271h170l-48 -271h170l-30 -170h-170l-49 -276h-170z" />
    <glyph glyph-name="five" unicode="5" 
d="M270 284q-3 -61 4 -83.5t19.5 -31t25.5 -14.5q18 -8 53.5 -12t89.5 -4q42 0 73 2.5t54 8t39 14t27 20.5q26 27 52.5 88.5t40.5 141.5q8 34 14 100q8 70 2.5 116.5t-28.5 74.5t-69.5 39.5t-127.5 11.5q-35 0 -64.5 -4.5t-54 -18t-45 -38.5t-37.5 -71h-166l185 651h643
l-29 -170h-494l-69 -247q75 22 186 27q105 0 171.5 -14.5t104 -48t53.5 -88t19 -135.5q3 -32 0 -76.5t-12 -96.5q-10 -58 -27.5 -110.5t-39.5 -98t-46.5 -82t-50.5 -63.5q-43 -46 -124 -68t-207 -22q-127 0 -199 22.5t-102 71.5q-53 70 -45 208h181z" />
    <glyph glyph-name="six" unicode="6" 
d="M338 896l255 379h186l-263 -394q22 2 46.5 3t50.5 1q105 0 171.5 -14.5t104 -48t53.5 -88t19 -135.5q3 -32 0 -76.5t-12 -96.5q-10 -58 -27.5 -110.5t-39.5 -98t-46.5 -82t-50.5 -63.5q-43 -46 -124 -68t-207 -22q-127 0 -199 22.5t-102 71.5q-16 24 -27 60.5t-17 81
t-5 96t11 106.5q7 50 40 153q34 91 74 156zM780 496l1 18q4 68 1.5 111t-22 67.5t-61 33.5t-113.5 9q-47 0 -80 -3t-56.5 -10t-39 -17.5t-26.5 -26.5q-25 -36 -50 -98.5t-41 -154.5q-11 -62 -12 -109t5.5 -80t20 -53t31.5 -28t53.5 -12t89.5 -4q42 0 73 2.5t54 8t39 14
t27 20.5q26 27 52.5 88.5t43.5 161.5q3 14 5.5 29.5t4.5 32.5z" />
    <glyph glyph-name="seven" unicode="7" 
d="M840 1044l11 61h-656l30 170h841l-44 -249l-655 -1026h-196z" />
    <glyph glyph-name="eight" unicode="8" 
d="M988 930q-13 -57 -33 -101.5t-42.5 -77.5t-92.5 -104q57 -35 83 -112.5t13 -181.5q-20 -91 -61 -163.5t-83 -117.5q-43 -46 -122.5 -68t-209.5 -22q-65 0 -114.5 5.5t-86 16.5t-61.5 29t-41 43q-34 55 -47 116.5t1 145.5q12 65 26.5 112.5t36.5 83t54 62t80 49.5
q-27 28 -44.5 59.5t-26.5 70.5t-9 83t7 86q14 76 48 147t95 126q45 46 119 67t193 21q98 0 160.5 -12.5t98 -45t50 -88t17.5 -139.5q1 -13 0 -32t-6 -47zM730 532q-5 16 -17 26.5t-33 17.5t-53.5 10t-79.5 3q-93 0 -142 -13t-70 -44q-19 -27 -41 -77t-33 -113
q-3 -17 -3.5 -44t4.5 -55.5t17 -53t35 -34.5q34 -16 154 -16q42 0 72.5 2.5t53.5 8t39 14t27 20.5q21 22 44.5 67t33.5 103q8 41 6.5 90.5t-14.5 87.5zM816 1113q-5 15 -15.5 25.5t-30.5 16.5t-50 9t-74 3t-75 -2.5t-53 -9t-39 -17t-33 -25.5q-50 -71 -69 -174
q-3 -18 -3 -41t4 -56.5t5 -38.5q5 -21 14.5 -35.5t30 -22.5t54 -11.5t87.5 -3.5q78 0 118 9.5t62 32.5q18 19 40 60t33 101q3 18 5.5 40.5t2 46.5t-3 48t-10.5 45z" />
    <glyph glyph-name="nine" unicode="9" 
d="M785 381l-257 -381h-186l264 396q-22 -2 -46 -3t-50 -1q-105 0 -171.5 14.5t-104.5 48t-53.5 88t-19.5 135.5q-2 32 0.5 76.5t12.5 96.5q10 58 28 115.5t40 103t46.5 82t50.5 63.5q43 46 124.5 68t207.5 22q127 0 198.5 -22.5t101.5 -71.5q16 -24 27 -60.5t17 -81t4 -101
t-11 -111.5q-7 -50 -40 -153q-34 -91 -75 -156zM342 781l-1 -18q-4 -68 -1.5 -111t22 -67.5t61 -33.5t113.5 -9q47 0 80 3t57 10t39 17.5t26 26.5q25 36 50 98.5t42 154.5q11 62 12.5 114t-5 85t-20 53t-31.5 28t-53.5 12t-89.5 4q-42 0 -73 -2.5t-54 -8t-39 -14t-27 -20.5
q-26 -27 -52.5 -88.5t-45.5 -171.5q-2 -14 -5 -29.5t-5 -32.5z" />
    <glyph glyph-name="colon" unicode=":" 
d="M361 301h337l-53 -301h-337zM467 897h337l-53 -301h-337z" />
    <glyph glyph-name="semicolon" unicode=";" 
d="M605 897h337l-53 -301h-337zM499 300l338 2l-592 -609h-206z" />
    <glyph glyph-name="equal" unicode="=" 
d="M989 704h-865v170h865v-170zM989 354h-865v170h865v-170z" />
    <glyph glyph-name="B" unicode="B" horiz-adv-x="1145" 
d="M400 1119l-69 -390h205q147 0 216 37.5t95 182.5q16 89 -40.5 129.5t-195.5 40.5h-211zM304 576l-74 -420h205q154 0 231.5 45.5t98.5 164.5q20 114 -40 162t-200 48h-221zM255 1275h422q193 0 283.5 -83.5t63.5 -236.5q-27 -151 -74 -210.5t-128 -90.5
q81 -31 114.5 -101t12.5 -189q-22 -122 -86.5 -202t-161.5 -121q-51 -22 -109.5 -31.5t-169.5 -9.5h-57h-334zM548 1418h130l-273 -1543h-130z" />
    <glyph glyph-name="E" unicode="E" horiz-adv-x="1135" 
d="M743 592l-65 -170h-278q1 -25 4 -52.5t9 -54t14 -50.5t18 -41q26 -40 69 -61t100 -21q39 0 74.5 10.5t67.5 27.5q28 17 48.5 41.5t29.5 53.5h184q-25 -71 -64 -125t-95 -91q-56 -40 -121.5 -58.5t-140.5 -18.5q-66 0 -119.5 14t-96.5 39.5t-74.5 60.5t-52.5 78
q-10 22 -18 52.5t-13.5 64t-8.5 67.5t-3 64h-227l65 170h179q7 38 10.5 56.5t7.5 32.5h-179l65 176l158 -1q32 100 86 187t124 145q72 61 154.5 89t179.5 28q151 0 231 -75t79 -212h-185q3 65 -40 99.5t-123 34.5q-54 0 -100.5 -22t-86 -61t-71.5 -93.5t-56 -119.5l355 1
l-66 -176h-334q-6 -22 -10.5 -46.5t-8.5 -42.5h325z" />
    <glyph glyph-name="H" unicode="H" horiz-adv-x="1151" 
d="M822 677q-21 -13 -47 -28.5t-53 -31t-54 -30t-51 -25.5h433l-36 -160h-623q-20 -27 -32 -56.5t-12 -61.5q0 -23 8 -47t26 -43.5t47.5 -32t73.5 -12.5q23 0 57.5 4.5t74.5 11.5t81.5 16t77.5 17.5t62.5 16t37.5 12.5l-50 -190q-30 -9 -80 -19t-105.5 -18t-108.5 -13
t-88 -5q-74 0 -132 20t-98 55.5t-61.5 85.5t-21.5 110q0 41 8.5 78t24.5 71h-154l38 160h245q55 38 104 68t74 47h-422l36 160h643q35 43 46 87t11 87q0 47 -16.5 72.5t-39.5 37.5t-47.5 14.5t-40.5 2.5q-19 0 -50.5 -8t-69 -20.5t-77 -27.5t-74.5 -29t-61 -25t-36 -16
l39 203q10 3 36 11t60 18t73.5 21t78.5 19.5t73 14.5t57 6q91 0 149 -27.5t90 -69t44 -89.5t12 -90q0 -55 -12 -102.5t-33 -89.5h170l-37 -160h-268z" />
    <glyph glyph-name="L" unicode="L" horiz-adv-x="1135" 
d="M82 165h149l145 381h-181l30 170h217q40 94 76 176t68.5 147.5t60 111.5t49.5 67q91 87 204 87q50 0 90.5 -18t66.5 -58l-34 -193q-34 35 -56.5 57.5t-35.5 30.5q-23 17 -50 17q-49 0 -83 -36q-9 -11 -25 -44.5t-38 -85t-49.5 -117.5t-59.5 -142h179l-30 -170h-217
l-135 -381h457l-30 -165h-798z" />
    <glyph glyph-name="N" unicode="N" horiz-adv-x="1151" 
d="M1122 665h-147l-14 -80h147l-19 -110h-147l-84 -475h-197l-126 475h-222l-84 -475h-162l84 475h-147l19 110h147l14 80h-147l20 110h147l88 500h205l130 -500h206l88 500h162l-88 -500h147zM332 585h174l-22 80h-138zM676 585h123l14 80h-158zM366 775h90l-54 204z
M750 303l30 172h-75z" />
    <glyph glyph-name="R" unicode="R" 
d="M382 508l-18 -103h526l-30 -170h-526l-42 -235h-170l42 235h-163l30 170h163l18 103h-163l30 170h163l105 597h409q186 0 275 -91t50 -311q-28 -159 -147 -261.5t-292 -102.5zM490 1123l-78 -444h192q139 0 206 44t85 145q28 159 -24 207t-172 48h-209z" />
    <glyph glyph-name="T" unicode="T" 
d="M509 850h-422l30 170h1013l-30 -170h-421l-150 -850h-170zM1145 1105h-1013l30 170h1013z" />
    <glyph glyph-name="W" unicode="W" horiz-adv-x="1151" 
d="M1129 674l-20 -113h-134q-5 -19 -8.5 -37t-8.5 -37h138l-20 -114h-146q-23 -92 -44 -186.5t-44 -186.5h-225l-16 373h-149q-40 -93 -80.5 -186.5t-79.5 -186.5h-230l41 373h-122l19 114h114q2 18 4.5 36t4.5 38h-110l20 113h102q16 149 27 300.5t27 300.5h194l-77 -601
h155q26 55 51.5 111t50.5 110h130l19 -221h139q31 149 63 300.5t63 300.5h180l-155 -601h127zM282 487h94q8 19 15.5 36.5t17.5 37.5h-118zM729 487h82q5 20 8 37t8 37h-105zM501 487h95l-2 36t-1 38h-61zM244 189q19 42 38.5 91.5t39.5 92.5h-54zM750 192q8 40 18.5 89.5
t19.5 91.5h-49zM572 674h27q-1 16 0 36.5t0 38.5z" />
    <glyph glyph-name="Y" unicode="Y" 
d="M935 482h-321l-15 -85h321l-30 -170h-321l-40 -227h-170l40 227h-312l30 170h312l15 85h-312l30 170h275l-253 623h217l183 -490l352 490h216l-481 -623h294z" />
    <glyph glyph-name="backslash" unicode="\" horiz-adv-x="1261" 
d="M388 1275h170l314 -1273h-170z" />
    <glyph glyph-name="t" unicode="t" horiz-adv-x="1151" 
d="M116 447l355 81l18 100l-355 -81l24 140l356 81l59 337h-422l30 170h1013l-30 -170h-421l-52 -296l363 83l-24 -140l-364 -83l-18 -100l364 83l-25 -140l-363 -83l-76 -429h-170l69 388l-356 -81z" />
    <glyph glyph-name="sterling" unicode="&#xa3;" horiz-adv-x="1135" 
d="M82 165h149l145 381h-181l30 170h217q40 94 76 176t68.5 147.5t60 111.5t49.5 67q91 87 204 87q50 0 90.5 -18t66.5 -58l-34 -193q-34 35 -56.5 57.5t-35.5 30.5q-23 17 -50 17q-49 0 -83 -36q-9 -11 -25 -44.5t-38 -85t-49.5 -117.5t-59.5 -142h179l-30 -170h-217
l-135 -381h457l-30 -165h-798z" />
    <glyph glyph-name="currency" unicode="&#xa4;" 
d="M382 508l-18 -103h526l-30 -170h-526l-42 -235h-170l42 235h-163l30 170h163l18 103h-163l30 170h163l105 597h409q186 0 275 -91t50 -311q-28 -159 -147 -261.5t-292 -102.5zM490 1123l-78 -444h192q139 0 206 44t85 145q28 159 -24 207t-172 48h-209z" />
    <glyph glyph-name="yen" unicode="&#xa5;" 
d="M935 482h-321l-15 -85h321l-30 -170h-321l-40 -227h-170l40 227h-312l30 170h312l15 85h-312l30 170h275l-253 623h217l183 -490l352 490h216l-481 -623h294z" />
    <glyph glyph-name="plusminus" unicode="&#xb1;" 
d="M641 1222v-347h348v-170h-348v-348h-170v348h-347v170h347v347h170zM989 0h-865v170h865v-170z" />
    <glyph glyph-name="uni0E3F" unicode="&#xe3f;" horiz-adv-x="1145" 
d="M400 1119l-69 -390h205q147 0 216 37.5t95 182.5q16 89 -40.5 129.5t-195.5 40.5h-211zM304 576l-74 -420h205q154 0 231.5 45.5t98.5 164.5q20 114 -40 162t-200 48h-221zM255 1275h422q193 0 283.5 -83.5t63.5 -236.5q-27 -151 -74 -210.5t-128 -90.5
q81 -31 114.5 -101t12.5 -189q-22 -122 -86.5 -202t-161.5 -121q-51 -22 -109.5 -31.5t-169.5 -9.5h-57h-334zM548 1418h130l-273 -1543h-130z" />
    <glyph glyph-name="emdash" unicode="&#x2014;" horiz-adv-x="1261" 
d="M1208 465h-1185l29 170h1185z" />
    <glyph glyph-name="uni20A6" unicode="&#x20a6;" horiz-adv-x="1151" 
d="M1122 665h-147l-14 -80h147l-19 -110h-147l-84 -475h-197l-126 475h-222l-84 -475h-162l84 475h-147l19 110h147l14 80h-147l20 110h147l88 500h205l130 -500h206l88 500h162l-88 -500h147zM332 585h174l-22 80h-138zM676 585h123l14 80h-158zM366 775h90l-54 204z
M750 303l30 172h-75z" />
    <glyph glyph-name="uni20A9" unicode="&#x20a9;" horiz-adv-x="1151" 
d="M1129 674l-20 -113h-134q-5 -19 -8.5 -37t-8.5 -37h138l-20 -114h-146q-23 -92 -44 -186.5t-44 -186.5h-225l-16 373h-149q-40 -93 -80.5 -186.5t-79.5 -186.5h-230l41 373h-122l19 114h114q2 18 4.5 36t4.5 38h-110l20 113h102q16 149 27 300.5t27 300.5h194l-77 -601
h155q26 55 51.5 111t50.5 110h130l19 -221h139q31 149 63 300.5t63 300.5h180l-155 -601h127zM282 487h94q8 19 15.5 36.5t17.5 37.5h-118zM729 487h82q5 20 8 37t8 37h-105zM501 487h95l-2 36t-1 38h-61zM244 189q19 42 38.5 91.5t39.5 92.5h-54zM750 192q8 40 18.5 89.5
t19.5 91.5h-49zM572 674h27q-1 16 0 36.5t0 38.5z" />
    <glyph glyph-name="Euro" unicode="&#x20ac;" horiz-adv-x="1135" 
d="M743 592l-65 -170h-278q1 -25 4 -52.5t9 -54t13.5 -50.5t17.5 -41q26 -40 69.5 -61t100.5 -21q39 0 74.5 10.5t67.5 27.5q28 17 48.5 41.5t28.5 53.5h184q-24 -71 -63 -125t-95 -91q-56 -40 -121.5 -58.5t-140.5 -18.5q-66 0 -119.5 14t-96.5 39.5t-74.5 60.5t-52.5 78
q-10 22 -18 52.5t-13.5 64t-8.5 67.5t-3 64h-227l65 170h179q7 38 10.5 56.5t7.5 32.5h-179l65 176l158 -1q32 100 86 187t123 145q73 61 155.5 89.5t179.5 28.5q152 0 231.5 -75t77.5 -213h-185q4 65 -39 99.5t-123 34.5q-54 0 -100.5 -22t-86 -61t-71.5 -93.5t-56 -119.5
l355 1l-66 -176h-334q-6 -22 -10.5 -46.5t-8.5 -42.5h325z" />
    <glyph glyph-name="uni20AE" unicode="&#x20ae;" horiz-adv-x="1151" 
d="M116 447l355 81l18 100l-355 -81l24 140l356 81l59 337h-422l30 170h1013l-30 -170h-421l-52 -296l363 83l-24 -140l-364 -83l-18 -100l364 83l-25 -140l-363 -83l-76 -429h-170l69 388l-356 -81z" />
    <glyph glyph-name="uni20B4" unicode="&#x20b4;" horiz-adv-x="1151" 
d="M822 677q-21 -13 -47 -28.5t-53 -31t-54 -30t-51 -25.5h433l-36 -160h-623q-20 -27 -32 -56.5t-12 -61.5q0 -23 8 -47t26 -43.5t47.5 -32t73.5 -12.5q23 0 57.5 4.5t74.5 11.5t81.5 16t77.5 17.5t62.5 16t37.5 12.5l-50 -190q-30 -9 -80 -19t-105.5 -18t-108.5 -13
t-88 -5q-74 0 -132 20t-98 55.5t-61.5 85.5t-21.5 110q0 41 8.5 78t24.5 71h-154l38 160h245q55 38 104 68t74 47h-422l36 160h643q35 43 46 87t11 87q0 47 -16.5 72.5t-39.5 37.5t-47.5 14.5t-40.5 2.5q-19 0 -50.5 -8t-69 -20.5t-77 -27.5t-74.5 -29t-61 -25t-36 -16
l39 203q10 3 36 11t60 18t73.5 21t78.5 19.5t73 14.5t57 6q91 0 149 -27.5t90 -69t44 -89.5t12 -90q0 -55 -12 -102.5t-33 -89.5h170l-37 -160h-268z" />
    <glyph glyph-name="uni20B8" unicode="&#x20b8;" 
d="M509 850h-422l30 170h1013l-30 -170h-421l-150 -850h-170zM1145 1105h-1013l30 170h1013z" />
    <glyph glyph-name="afii61352" unicode="&#x2116;" horiz-adv-x="1800" 
d="M246 1275h215l253 -972l171 972h170l-225 -1275h-205l-259 979l-173 -979h-172zM1532 0h-553l30 170h553zM1324 420q72 0 123 52q54 56 78 191q13 71 9.5 118.5t-20.5 74.5q-34 52 -104 52q-73 0 -123 -52q-51 -51 -77 -193q-24 -136 10 -191q31 -52 104 -52zM1670 663
q-17 -95 -52 -168t-81 -118q-51 -44 -109 -67t-127 -23q-136 0 -205 90q-67 89 -32 286q17 96 52 169.5t82 118.5q51 45 109.5 68.5t126.5 23.5q136 0 204 -93v1q66 -91 32 -288z" />
    <glyph glyph-name="minus" unicode="&#x2212;" 
d="M989 525h-865v170h865v-170z" />
    <glyph glyph-name="percent" horiz-adv-x="1221" 
d="M716 91q37 0 62.5 28t34.5 78q9 52 -6 79.5t-53 27.5t-64 -27.5t-35 -79.5t7 -79t54 -27zM930 197q-18 -98 -81 -156.5t-152 -58.5q-90 0 -133 58t-25 157q17 98 81 156.5t153 58.5q88 0 131 -58.5t26 -156.5zM463 984q37 0 61.5 27t33.5 79t-6 79.5t-52 27.5
q-39 0 -64.5 -28t-34.5 -79q-9 -50 7.5 -78t54.5 -28zM675 1090q-17 -99 -80 -157t-152 -58q-90 0 -133 58t-26 157q18 98 81.5 156.5t153.5 58.5q88 0 131 -58t25 -157zM123 444l998 605l-20 -180l-998 -605z" />
  </font>
</defs>
</svg>
